<svg viewBox="0 0 48 48" xmlns="http://www.w3.org/2000/svg">
<defs>
<linearGradient gradientTransform="matrix(0,1,-1,0,44.01386,-2.96967)" gradientUnits="userSpaceOnUse" id="linearGradient3854" x1="20.875" x2="52.21935" y1="24.5625" y2="13.59743">
<stop offset="0" stop-color="#fff"/>
<stop offset="1" stop-color="#fff" stop-opacity="0"/>
</linearGradient>
<radialGradient cx="12.15625" cy="16.96875" gradientTransform="matrix(1,0,0,.537849,0,7.842131)" gradientUnits="userSpaceOnUse" id="radialGradient3359" r="7.84375">
<stop offset="0"/>
<stop offset="1" stop-opacity="0"/>
</radialGradient>
</defs>
<path d="m20,16.96875a7.84375,4.21875 0 1,1 -15.6875,0 7.84375,4.21875 0 1,1 15.6875,0z" fill="url(#radialGradient3359)" opacity=".15" transform="matrix(2.80478,0,0,2.133333,-10.095615,2.8)"/>
<path d="m29.34375,9.03125c-.5078.07785-.88088.51755-.875,1.03125v6.4375h-9.9375v-6.375c-.00732-.40326-.24904-.76524-.6187-.92655s-.79943-.09233-1.10005.17655l-14,12.90625c-.20642.19484-.32341.46615-.32341.75s.11699.55516.32341.75l14,12.96875c.30062.26888.73039.33786 1.10005.17655s.61138-.52329.6187-.92655v-6.4375h9.9375v6.375c.00732.40326.24904.76524.6187.92655s.79943.09233 1.10005-.17655l14-12.90625c.20642-.19484.32341-.46615.32341-.75s-.11699-.55516-.32341-.75l-14-12.96875c-.2243-.21643-.53445-.31982-.84375-.28125z" fill="#88a"/>
<path d="m29.5,10.03125v7.5h-12v-7.40625l-14.03125,12.9375 14.03125,12.96875v-7.5h12v7.40625l14.03125-12.9375-14.03125-12.96875z" fill="none" stroke="url(#linearGradient3854)" stroke-dashoffset="1.4" stroke-linecap="round" stroke-linejoin="round"/>
</svg>
